<?xml version="1.0" encoding="UTF-8" standalone="no"?>
<!-- http://code.google.com/p/vector-playing-cards/ -->

<svg
   xmlns:dc="http://purl.org/dc/elements/1.1/"
   xmlns:cc="http://creativecommons.org/ns#"
   xmlns:rdf="http://www.w3.org/1999/02/22-rdf-syntax-ns#"
   xmlns:svg="http://www.w3.org/2000/svg"
   xmlns="http://www.w3.org/2000/svg"
   xmlns:xlink="http://www.w3.org/1999/xlink"
   xmlns:sodipodi="http://sodipodi.sourceforge.net/DTD/sodipodi-0.dtd"
   xmlns:inkscape="http://www.inkscape.org/namespaces/inkscape"
   width="167.0869141pt"
   height="242.6669922pt"
   viewBox="0 0 167.0869141 242.6669922"
   xml:space="preserve"
   id="svg2"
   version="1.1"
   inkscape:version="0.92.3 (2405546, 2018-03-11)"
   sodipodi:docname="Joker_Rojo.svg"
   inkscape:export-filename="/home/byron/art/cards/final/PNGs/2_of_clubs.png"
   inkscape:export-xdpi="215.44792"
   inkscape:export-ydpi="215.44792"><metadata
   id="metadata43"><rdf:RDF><cc:Work
       rdf:about=""><dc:format>image/svg+xml</dc:format><dc:type
         rdf:resource="http://purl.org/dc/dcmitype/StillImage" /><dc:title></dc:title></cc:Work></rdf:RDF></metadata><defs
   id="defs41"><radialGradient
     inkscape:collect="always"
     xlink:href="#linearGradient2984"
     id="radialGradient3760"
     cx="48.231091"
     cy="18.137882"
     fx="48.231091"
     fy="18.137882"
     r="9.5"
     gradientUnits="userSpaceOnUse"
     gradientTransform="matrix(-1.5605256,0.01828294,-0.02684055,-2.2909528,123.98377,58.809108)" /><linearGradient
     id="linearGradient2984"><stop
       style="stop-color:#000000;stop-opacity:1;"
       offset="0"
       id="stop2986" /><stop
       style="stop-color:#000000;stop-opacity:0.65648854;"
       offset="1"
       id="stop2988" /></linearGradient><radialGradient
     inkscape:collect="always"
     xlink:href="#linearGradient3784"
     id="radialGradient3792"
     cx="171.48665"
     cy="511.22299"
     fx="171.48665"
     fy="511.22299"
     r="81.902771"
     gradientTransform="matrix(1.1529891,-0.67391547,0.39482025,0.67549043,-233.63262,270.40076)"
     gradientUnits="userSpaceOnUse" /><linearGradient
     id="linearGradient3784"><stop
       style="stop-color:#ffffff;stop-opacity:0.53435117;"
       offset="0"
       id="stop3786" /><stop
       style="stop-color:#000000;stop-opacity:0;"
       offset="1"
       id="stop3788" /></linearGradient><radialGradient
     r="81.902771"
     fy="511.22299"
     fx="171.48665"
     cy="511.22299"
     cx="171.48665"
     gradientTransform="matrix(1.1529891,-0.67391547,0.39482025,0.67549043,-233.63262,270.40076)"
     gradientUnits="userSpaceOnUse"
     id="radialGradient3855"
     xlink:href="#linearGradient3784-4"
     inkscape:collect="always" /><linearGradient
     id="linearGradient3784-4"><stop
       style="stop-color:#ffffff;stop-opacity:0.51908398;"
       offset="0"
       id="stop3786-8" /><stop
       style="stop-color:#000000;stop-opacity:0;"
       offset="1"
       id="stop3788-6" /></linearGradient><radialGradient
     r="81.902771"
     fy="461.84113"
     fx="181.69392"
     cy="461.84113"
     cx="181.69392"
     gradientTransform="matrix(1.1529891,-0.67391547,0.39482025,0.67549043,-233.63262,270.40076)"
     gradientUnits="userSpaceOnUse"
     id="radialGradient3916"
     xlink:href="#linearGradient3784-3"
     inkscape:collect="always" /><linearGradient
     id="linearGradient3784-3"><stop
       style="stop-color:#ffffff;stop-opacity:0.70229006;"
       offset="0"
       id="stop3786-86" /><stop
       style="stop-color:#000000;stop-opacity:0;"
       offset="1"
       id="stop3788-2" /></linearGradient></defs><sodipodi:namedview
   pagecolor="#ffffff"
   bordercolor="#666666"
   borderopacity="1"
   objecttolerance="10"
   gridtolerance="10"
   guidetolerance="10"
   inkscape:pageopacity="0"
   inkscape:pageshadow="2"
   inkscape:window-width="1920"
   inkscape:window-height="1029"
   id="namedview39"
   showgrid="false"
   inkscape:zoom="1.7208768"
   inkscape:cx="-121.21374"
   inkscape:cy="147.53339"
   inkscape:window-x="0"
   inkscape:window-y="0"
   inkscape:window-maximized="1"
   inkscape:current-layer="g856" />
	










<flowRoot
   xml:space="preserve"
   id="flowRoot863"
   style="fill:black;fill-opacity:1;stroke:none;font-family:sans-serif;font-style:normal;font-weight:normal;font-size:40px;line-height:1.25;letter-spacing:-24.96999931px;word-spacing:0px"><flowRegion
     id="flowRegion865"><rect
       id="rect867"
       width="34.284847"
       height="40.09584"
       x="14.527478"
       y="14.992353" /></flowRegion><flowPara
     id="flowPara869" /></flowRoot>

<g
   id="g856"
   transform="matrix(0.49066613,0,0,0.49066613,-275.50743,6.3175427)"><g
     id="g892"
     transform="matrix(1.2565119,0,0,1.2565119,407.7863,-72.045032)"><path
       id="path844"
       class=""
       d="m 363.979,161.84 c 7.127,9.459 12.739,20.689 16.832,32.04 3.8,10.544 6.197,21.211 6.668,31.02 -0.163,19.015 -3.915,23.274 -14.557,36.934 l -6.703,-11.48 c -10.85,-13.106 -30.779,-48.4 -47.383,-43.672 -6.521,6.11 -8.996,13.37 -10.313,20.802 2.898,8.8 4.477,18.43 4.477,28.516 0,15.293 -3.615,29.54 -9.996,41.416 22.643,4.537 57.927,19.332 57.973,39.223 -0.27,3.783 -1.835,7.68 -4.362,10.42 -10.743,12.528 -36.958,4.125 -45.2,10.072 0.796,6.947 4.112,14.118 4.355,20.174 0.136,4.36 -1.768,10.58 -6.508,13.996 -5.67,4.087 -12.968,4.551 -18.52,3.045 C 279.94,392.226 272,379.649 256,377 c -13.544,3.491 -22.412,13.87 -34.742,17.346 -5.552,1.506 -12.85,1.042 -18.52,-3.045 -4.74,-3.417 -6.644,-9.636 -6.508,-13.996 -0.058,-7.142 4.107,-13.794 4.356,-20.174 -15.741,-7.788 -33.816,1.97 -45.201,-10.072 -2.527,-2.74 -4.093,-6.637 -4.362,-10.42 6.146,-27.341 35.374,-34.684 57.973,-39.223 C 202.615,285.54 199,271.293 199,256 c 0,-11.489 2.047,-22.385 5.764,-32.135 -2.357,-7.923 -3.441,-15.988 -9.438,-22.441 -8.758,-0.925 -14.079,6.897 -17.842,12.63 -11.683,19.5 -18.718,30.606 -32.88,46.192 -16.604,-23.4 -19.314,-49.29 -13.157,-70.988 6.065,-20.331 19.17,-38.798 37.926,-47.924 21.216,-9.766 39.872,-10.03 58.885,0.203 5.163,-13.053 10.4,-25.65 18.035,-36.209 9.625,-13.31 23.8,-25.631 43.707,-25.295 38.8,0.656 73.993,51.156 73.979,81.807 z"
       inkscape:connector-curvature="0"
       style="fill:#d0021b;fill-opacity:1" /><path
       id="path846"
       class="selected"
       d="m 291.759,97.947 c -35.759,2.409 -44.771,44.746 -55.189,71.29 l -9.447,-7.087 c -18.428,-12.31 -31.076,-13.732 -49.875,-4.63 -12.924,6.288 -23.701,20.62 -28.553,36.882 -3.38,11.329 -3.765,23.225 -0.949,33.645 9.45,-13.549 15.806,-30.08 28.317,-39.178 7.486,-7.975 26.27,-8.498 35.45,3.897 4.838,7.02 7.437,14.54 9.5,22.234 h 72.165 c 0.592,-1.944 1.067,-3.762 2.017,-6.033 2.956,-7.064 7.765,-16.266 18.395,-19.504 18.09,-3.862 32.494,7.106 43.498,18.514 4.517,4.717 8.492,9.696 12.098,14.517 -0.69,-6.798 -2.477,-14.651 -5.31,-22.508 -13.127,-36.707 -37.889,-51.031 -70.386,-32.011 2.556,-16.423 16.87,-35.72 46.25,-26.962 -9.094,-17.135 -30.355,-42.471 -47.98,-43.066 z"
       inkscape:connector-curvature="0"
       style="fill:#ffffff;fill-opacity:1" /><path
       id="path848"
       class=""
       d="m 220.644,233 c -2.31,6.965 -3.643,14.753 -3.643,23 0,15.85 4.892,30.032 12.26,39.855 C 236.628,305.68 245.988,311 256,311 c 10.012,0 19.372,-5.32 26.74,-15.145 C 290.108,286.032 295,271.85 295,256 c 0,-8.247 -1.334,-16.035 -3.643,-23 z"
       inkscape:connector-curvature="0"
       style="fill:#ffffff;fill-opacity:1" /><path
       id="path850"
       class=""
       d="m 232,280 h 48 c 0,0 -8,14 -24,14 -16,0 -24,-14 -24,-14 z"
       inkscape:connector-curvature="0"
       style="fill:#d0021b;fill-opacity:1" /><path
       id="path852"
       class=""
       d="m 220.86,313.566 c -13.86,3.34 -50.369,8.9 -51.842,21.42 9.621,1.947 20.446,0.838 28.998,2.235 5.993,1.018 12.82,3.323 17.285,9.517 3.375,4.683 3.577,10.103 3.037,14.21 -0.543,5.89 -3.317,10.557 -3.975,16.32 15.955,-2.59 28.264,-17.532 41.637,-18.268 16,-0.702 29.313,17.402 41.637,18.268 -0.893,-5.59 -3.262,-11.158 -3.975,-16.32 -0.54,-4.107 -0.338,-9.527 3.037,-14.21 4.465,-6.194 11.292,-8.5 17.285,-9.517 9.742,-2.229 19.975,0.396 28.998,-2.235 -5.77,-13.125 -39.813,-19.454 -51.841,-21.42 C 281.665,323.01 269.45,329 256,329 c -13.452,0 -25.665,-5.991 -35.14,-15.434 z"
       inkscape:connector-curvature="0"
       style="fill:#ffffff;fill-opacity:1" /></g></g></svg>